<svg width="48" height="48" viewBox="0 0 48 48" fill="none" xmlns="http://www.w3.org/2000/svg">
  <defs>
    <linearGradient id="xtop" x1="6" y1="6" x2="42" y2="16" gradientUnits="userSpaceOnUse">
      <stop stop-color="#67e8f9"/>
      <stop offset="1" stop-color="#0ea5e9"/>
    </linearGradient>
    <linearGradient id="xfront" x1="6" y1="16" x2="36" y2="42" gradientUnits="userSpaceOnUse">
      <stop stop-color="#0284c7"/>
      <stop offset="1" stop-color="#0c4a6e"/>
    </linearGradient>
    <linearGradient id="xside" x1="36" y1="10" x2="42" y2="42" gradientUnits="userSpaceOnUse">
      <stop stop-color="#0369a1"/>
      <stop offset="1" stop-color="#082f49"/>
    </linearGradient>
  </defs>
  <polygon points="6,16 24,8 42,16 24,24" fill="url(#xtop)"/>
  <polygon points="6,16 6,38 24,46 24,24" fill="url(#xfront)"/>
  <polygon points="24,24 24,46 42,38 42,16" fill="url(#xside)"/>
  <polyline points="6,16 24,8 42,16" stroke="#67e8f9" stroke-width="0.8" stroke-linecap="round" stroke-linejoin="round" opacity="0.8"/>
  <line x1="24" y1="8" x2="24" y2="24" stroke="#7dd3fc" stroke-width="0.7" opacity="0.6"/>
  <line x1="9" y1="21" x2="18" y2="37" stroke="white" stroke-width="2.2" stroke-linecap="round"/>
  <line x1="18" y1="21" x2="9" y2="37" stroke="white" stroke-width="2.2" stroke-linecap="round"/>
  <polygon points="8,16 24,9.5 34,14 18,20.5" fill="white" opacity="0.12"/>
</svg>
